<svg width="10" height="10" viewBox="0 0 24 24" fill="none" xmlns="http://www.w3.org/2000/svg">
<path d="M4.24477 19.7552C3.9137 19.4335 3.92316 18.8848 4.24477 18.5631L10.2987 12.4988L4.24477 6.44396C3.92316 6.12229 3.92316 5.58303 4.24477 5.2519C4.56638 4.91132 5.12448 4.92078 5.44609 5.2519L11.5 11.3068L17.5539 5.2519C17.8755 4.92078 18.4242 4.92078 18.7552 5.2519C19.0863 5.57357 19.0768 6.12229 18.7552 6.44396L12.7013 12.4988L18.7552 18.5631C19.0768 18.8848 19.0768 19.4241 18.7552 19.7552C18.4336 20.0863 17.8755 20.0769 17.5539 19.7552L11.5 13.7003L5.44609 19.7552C5.12448 20.0769 4.57584 20.0769 4.24477 19.7552Z" fill="white"/>
</svg>
